<svg xmlns="http://www.w3.org/2000/svg" viewBox="0 0 32 32" role="img" aria-label="FIFA World Cup">
  <defs>
    <linearGradient id="gold" x1="0%" y1="0%" x2="100%" y2="100%">
      <stop offset="0%" stop-color="#f5e6a8"/>
      <stop offset="45%" stop-color="#d4af37"/>
      <stop offset="100%" stop-color="#9a7b1a"/>
    </linearGradient>
  </defs>
  <rect width="32" height="32" rx="6" fill="#0a0a0a"/>
  <g transform="translate(16 16)">
    <ellipse cx="0" cy="7.5" rx="7" ry="1.4" fill="#d4af37" opacity="0.35"/>
    <path d="M-4.5 6.5h9v1.6c0 .8-.7 1.4-1.5 1.4h-6c-.8 0-1.5-.6-1.5-1.4V6.5z" fill="url(#gold)"/>
    <rect x="-1.1" y="2.8" width="2.2" height="4" rx="0.4" fill="url(#gold)"/>
    <path d="M-5.8-1.2c1.8-2.6 4.8-4.2 5.8-4.6 1 .4 4 2 5.8 4.6-1.2 1.4-2.8 2.2-5.8 2.2S-4.6.2-5.8-1.2z" fill="url(#gold)"/>
    <path d="M-6.6-2.2c.5-1.8 2.2-3.2 4.1-3.8M6.6-2.2c-.5-1.8-2.2-3.2-4.1-3.8" fill="none" stroke="url(#gold)" stroke-width="1.2" stroke-linecap="round"/>
    <circle cx="0" cy="-4.8" r="1.1" fill="#f5e6a8"/>
  </g>
</svg>
